<svg xmlns="http://www.w3.org/2000/svg" xmlns:xlink="http://www.w3.org/1999/xlink" viewBox="0 0 500 300"><defs><style>.cls-1{fill:none;}.cls-2{isolation:isolate;}.cls-3{fill:#d2fffc;}.cls-4{fill:url(#linear-gradient);}.cls-5{fill:url(#linear-gradient-2);}.cls-6{fill:#fff;}.cls-7{clip-path:url(#clip-path);}.cls-8{fill:#efcdaf;}.cls-9{fill:url(#linear-gradient-3);}.cls-10,.cls-11{fill:#cc6362;}.cls-11{opacity:0.5;}.cls-12{fill:url(#linear-gradient-4);}.cls-13{fill:#ffc1cd;}.cls-14{fill:url(#linear-gradient-5);}.cls-15{fill:url(#linear-gradient-6);}.cls-16{fill:url(#linear-gradient-7);}.cls-17{fill:url(#linear-gradient-8);}.cls-18,.cls-19{mix-blend-mode:multiply;}.cls-18{fill:url(#linear-gradient-9);}.cls-19{fill:url(#linear-gradient-10);}.cls-20{fill:#ffb966;}.cls-21{fill:url(#linear-gradient-11);}.cls-22{fill:url(#linear-gradient-12);}.cls-23{fill:#e5918f;}.cls-24{fill:url(#linear-gradient-13);}.cls-25{fill:url(#linear-gradient-14);}.cls-26{fill:url(#linear-gradient-15);}.cls-27{fill:url(#linear-gradient-16);}.cls-28{opacity:0.35;mix-blend-mode:color-burn;fill:url(#linear-gradient-17);}.cls-29{fill:url(#linear-gradient-18);}.cls-30{fill:url(#linear-gradient-19);}.cls-31{fill:#e8a77d;}.cls-32{fill:url(#linear-gradient-20);}.cls-33{fill:url(#linear-gradient-21);}.cls-34{fill:url(#linear-gradient-22);}.cls-35{fill:url(#linear-gradient-23);}.cls-36{fill:url(#linear-gradient-24);}.cls-37{fill:url(#linear-gradient-25);}.cls-38{fill:url(#linear-gradient-26);}.cls-39{opacity:0.8;fill:url(#linear-gradient-27);}.cls-40{fill:url(#linear-gradient-28);}.cls-41{fill:url(#linear-gradient-29);}</style><linearGradient id="linear-gradient" x1="251.58" y1="279.66" x2="251.58" y2="80.66" gradientUnits="userSpaceOnUse"><stop offset="0" stop-color="#7995fd"/><stop offset="1" stop-color="#54deff"/></linearGradient><linearGradient id="linear-gradient-2" x1="251.58" y1="71.48" x2="251.58" y2="253.89" gradientUnits="userSpaceOnUse"><stop offset="0" stop-color="#f9dd68"/><stop offset="1" stop-color="#f9a942"/></linearGradient><clipPath id="clip-path"><circle class="cls-1" cx="253.8" cy="118.3" r="36.76"/></clipPath><linearGradient id="linear-gradient-3" x1="254.39" y1="125.77" x2="254.39" y2="154.07" xlink:href="#linear-gradient"/><linearGradient id="linear-gradient-4" x1="262.83" y1="106.87" x2="262.83" y2="96.63" gradientUnits="userSpaceOnUse"><stop offset="0" stop-color="#00004f"/><stop offset="1" stop-color="#000079"/></linearGradient><linearGradient id="linear-gradient-5" x1="232.42" y1="125.77" x2="232.42" y2="154.07" xlink:href="#linear-gradient"/><linearGradient id="linear-gradient-6" x1="274.41" y1="125.77" x2="274.41" y2="154.07" xlink:href="#linear-gradient"/><linearGradient id="linear-gradient-7" x1="255.54" y1="106.87" x2="255.54" y2="96.63" xlink:href="#linear-gradient-4"/><linearGradient id="linear-gradient-8" x1="244.62" y1="106.87" x2="244.62" y2="96.63" xlink:href="#linear-gradient-4"/><linearGradient id="linear-gradient-9" x1="271.12" y1="136.96" x2="271.12" y2="155.51" gradientUnits="userSpaceOnUse"><stop offset="0" stop-color="#d1d3d4"/><stop offset="1" stop-color="#a7a9ac"/></linearGradient><linearGradient id="linear-gradient-10" x1="236.5" y1="136.96" x2="236.5" y2="155.51" xlink:href="#linear-gradient-9"/><linearGradient id="linear-gradient-11" x1="246.06" y1="123" x2="252.42" y2="129.66" xlink:href="#linear-gradient"/><linearGradient id="linear-gradient-12" x1="261.76" y1="123.08" x2="255.23" y2="129.62" xlink:href="#linear-gradient"/><linearGradient id="linear-gradient-13" x1="165.75" y1="297.63" x2="183.92" y2="297.63" gradientUnits="userSpaceOnUse"><stop offset="0" stop-color="aqua"/><stop offset="1" stop-color="#5793fb"/></linearGradient><linearGradient id="linear-gradient-14" x1="200.33" y1="177.17" x2="196.46" y2="150.9" xlink:href="#linear-gradient"/><linearGradient id="linear-gradient-15" x1="193.2" y1="212.01" x2="195.27" y2="291.67" gradientUnits="userSpaceOnUse"><stop offset="0" stop-color="#00006c"/><stop offset="1" stop-color="#5793fb"/></linearGradient><linearGradient id="linear-gradient-16" x1="174.78" y1="212.49" x2="176.85" y2="292.15" xlink:href="#linear-gradient-15"/><linearGradient id="linear-gradient-17" x1="186.48" y1="230.23" x2="188.07" y2="230.23" gradientUnits="userSpaceOnUse"><stop offset="0" stop-color="#00006c"/><stop offset="1" stop-color="#3049b9"/></linearGradient><linearGradient id="linear-gradient-18" x1="194.87" y1="297.63" x2="212.91" y2="297.63" xlink:href="#linear-gradient-13"/><linearGradient id="linear-gradient-19" x1="184.7" y1="204.44" x2="178.89" y2="153" xlink:href="#linear-gradient"/><linearGradient id="linear-gradient-20" x1="187.19" y1="141" x2="177.03" y2="121.51" gradientUnits="userSpaceOnUse"><stop offset="0" stop-color="#000051"/><stop offset="1" stop-color="#30389c"/></linearGradient><linearGradient id="linear-gradient-21" x1="169.64" y1="279.06" x2="229.23" y2="159.15" gradientTransform="translate(-80.16 117.68) rotate(-27.73)" gradientUnits="userSpaceOnUse"><stop offset="0" stop-color="#9b00cf"/><stop offset="1" stop-color="#2733fd"/></linearGradient><linearGradient id="linear-gradient-22" x1="227.54" y1="168.54" x2="231.09" y2="153.03" gradientTransform="translate(-50.02 125.12) rotate(-27.73)" gradientUnits="userSpaceOnUse"><stop offset="0" stop-color="#fffffd"/><stop offset="1" stop-color="#54deff"/></linearGradient><linearGradient id="linear-gradient-23" x1="406.68" y1="-745.99" x2="406.68" y2="-568.83" gradientTransform="translate(-438.05 560.96) rotate(27.72)" xlink:href="#linear-gradient-22"/><linearGradient id="linear-gradient-24" x1="406.68" y1="-742.53" x2="406.68" y2="-584.08" gradientTransform="translate(-438.05 560.96) rotate(27.72)" xlink:href="#linear-gradient"/><linearGradient id="linear-gradient-25" x1="182.03" y1="175.2" x2="162.98" y2="157.99" xlink:href="#linear-gradient"/><linearGradient id="linear-gradient-26" x1="292.03" y1="94.35" x2="272.67" y2="77.7" gradientUnits="userSpaceOnUse"><stop offset="0" stop-color="#84cf9b"/><stop offset="1" stop-color="#79d3fd"/></linearGradient><linearGradient id="linear-gradient-27" x1="337.85" y1="238.48" x2="293.75" y2="206.09" xlink:href="#linear-gradient"/><linearGradient id="linear-gradient-28" x1="298.62" y1="210.13" x2="309.63" y2="219.5" gradientUnits="userSpaceOnUse"><stop offset="0" stop-color="#00b5ff"/><stop offset="1" stop-color="#3049b9"/></linearGradient><linearGradient id="linear-gradient-29" x1="299.61" y1="208.96" x2="310.62" y2="218.34" xlink:href="#linear-gradient-28"/></defs><title>Case study_icons</title><g class="cls-2"><g id="Layer_39" data-name="Layer 39"><rect class="cls-3" width="500" height="300"/><rect class="cls-4" x="193.74" y="62" width="115.69" height="219.75" rx="9.41" ry="9.41"/><rect class="cls-5" x="196.8" y="65.04" width="109.57" height="213.79" rx="7.82" ry="7.82"/><path class="cls-6" d="M228.27,186.89l.95,1.93a.42.42,0,0,0,.31.22l2.13.31a.42.42,0,0,1,.23.71l-1.54,1.5a.4.4,0,0,0-.12.36l.36,2.12a.41.41,0,0,1-.6.44l-1.9-1a.37.37,0,0,0-.38,0l-1.91,1a.42.42,0,0,1-.6-.44l.37-2.12a.4.4,0,0,0-.12-.36l-1.54-1.5a.42.42,0,0,1,.23-.71l2.13-.31a.42.42,0,0,0,.31-.22l.95-1.93A.41.41,0,0,1,228.27,186.89Z"/><path class="cls-6" d="M240.11,186.89l.95,1.93a.42.42,0,0,0,.31.22l2.13.31a.42.42,0,0,1,.23.71l-1.54,1.5a.4.4,0,0,0-.12.36l.37,2.12a.42.42,0,0,1-.6.44l-1.91-1a.37.37,0,0,0-.38,0l-1.9,1a.41.41,0,0,1-.6-.44l.36-2.12a.4.4,0,0,0-.12-.36l-1.54-1.5a.42.42,0,0,1,.23-.71l2.13-.31a.42.42,0,0,0,.31-.22l1-1.93A.41.41,0,0,1,240.11,186.89Z"/><path class="cls-6" d="M252,186.89l1,1.93a.43.43,0,0,0,.32.22l2.12.31a.42.42,0,0,1,.23.71l-1.54,1.5a.43.43,0,0,0-.12.36l.37,2.12a.42.42,0,0,1-.6.44l-1.9-1a.39.39,0,0,0-.39,0l-1.9,1a.41.41,0,0,1-.6-.44l.36-2.12a.4.4,0,0,0-.12-.36l-1.54-1.5a.42.42,0,0,1,.23-.71L250,189a.42.42,0,0,0,.31-.22l1-1.93A.41.41,0,0,1,252,186.89Z"/><path class="cls-6" d="M263.8,186.89l.95,1.93a.4.4,0,0,0,.31.22l2.13.31a.42.42,0,0,1,.22.71l-1.53,1.5a.38.38,0,0,0-.12.36l.36,2.12a.42.42,0,0,1-.6.44l-1.9-1a.39.39,0,0,0-.39,0l-1.9,1a.42.42,0,0,1-.6-.44l.36-2.12a.4.4,0,0,0-.11-.36l-1.54-1.5a.42.42,0,0,1,.23-.71l2.12-.31a.4.4,0,0,0,.31-.22l1-1.93A.41.41,0,0,1,263.8,186.89Z"/><path class="cls-6" d="M275.64,186.89l.95,1.93a.42.42,0,0,0,.31.22l2.13.31a.42.42,0,0,1,.23.71l-1.54,1.5a.4.4,0,0,0-.12.36L278,194a.41.41,0,0,1-.6.44l-1.9-1a.37.37,0,0,0-.38,0l-1.91,1a.42.42,0,0,1-.6-.44l.37-2.12a.4.4,0,0,0-.12-.36l-1.54-1.5a.42.42,0,0,1,.23-.71l2.13-.31a.42.42,0,0,0,.31-.22l.95-1.93A.41.41,0,0,1,275.64,186.89Z"/><circle class="cls-6" cx="253.8" cy="118.3" r="36.76"/><g class="cls-7"><path id="_Path_" data-name="&lt;Path&gt;" class="cls-8" d="M260.07,122.36a13.29,13.29,0,0,1-1.1-4,8.34,8.34,0,0,1,0-1.38,3.89,3.89,0,0,1,.11-.8l-.28.07a.42.42,0,0,0,0-.07l-4.95,1.38-5-1.38a.17.17,0,0,1,0,.07l-.28-.07a3.89,3.89,0,0,1,.11.8,7.36,7.36,0,0,1,0,1.38,13.52,13.52,0,0,1-1.09,4s-.46,1.17-3.65,1.58a12.42,12.42,0,0,0,.81,2l.22.43a13.11,13.11,0,0,0,.67,1.16,13.48,13.48,0,0,0,1.49,2,4.77,4.77,0,0,0,3.39,3.31,13.45,13.45,0,0,0,2.13.17c.27,0,.53,0,.79,0l.38,0,.38,0c.26,0,.52,0,.79,0a13.45,13.45,0,0,0,2.13-.17,4.77,4.77,0,0,0,3.39-3.31,13.58,13.58,0,0,0,1.5-2c.25-.4.48-.79.67-1.16s.29-.58.4-.83a10.27,10.27,0,0,0,.56-1.43C260.46,123.74,260.07,122.36,260.07,122.36Z"/><path id="_Path_2" data-name="&lt;Path&gt;" class="cls-9" d="M281,149.2l-9-9-.77,24.18a40.43,40.43,0,0,1-34.9,0l-.1-3.15-.66-21-1.18,1.18h-6.6c1.38-6.34,3.26-12.13,9.58-15.47a29,29,0,0,1,7.75-2.32.48.48,0,0,1,.47.28,18.61,18.61,0,0,0,.89,1.72.31.31,0,0,1,.11.2,14,14,0,0,0,6.19,5.89,2.82,2.82,0,0,0,2.1,0,14,14,0,0,0,6.18-5.89.28.28,0,0,1,.12-.2,17.91,17.91,0,0,0,.88-1.72.48.48,0,0,1,.46-.28c1.36.47,4.93,1.44,7.44,2.46C279,130.86,280.35,141.25,281,149.2Z"/><path id="_Path_3" data-name="&lt;Path&gt;" class="cls-10" d="M259,118.36a8.16,8.16,0,0,1,0-1.38l-.2-.4-4.91,1.31-4.91-1.31-.21.4a7.36,7.36,0,0,1,0,1.38,6.19,6.19,0,0,0,5.14,3.15h0A6.13,6.13,0,0,0,259,118.36Z"/><g id="_Group_" data-name="&lt;Group&gt;"><path id="_Path_4" data-name="&lt;Path&gt;" class="cls-8" d="M244.92,106.87s.56,1.87,1,4.3c.25,1.35.05,2-1.14,1.83-.92-.14-3.27-2.91-2.46-5.28A1.81,1.81,0,0,1,244.92,106.87Z"/></g><g id="_Group_2" data-name="&lt;Group&gt;"><path id="_Path_5" data-name="&lt;Path&gt;" class="cls-8" d="M262.93,113l-.16,0c-1,.1-1.21-.57-1-1.85,0-.17.07-.34.1-.51.43-2.17.92-3.79.92-3.79a1.82,1.82,0,0,1,2.58.85C266.2,110.09,263.85,112.86,262.93,113Z"/></g><path id="_Path_6" data-name="&lt;Path&gt;" class="cls-11" d="M262.77,113c-1,.1-1.21-.57-1-1.85,0-.17.07-.34.1-.51l.21.09S262.12,113,262.77,113Z"/><path id="_Path_7" data-name="&lt;Path&gt;" class="cls-11" d="M245,113c1,.1,1.22-.57,1-1.85,0-.17-.07-.34-.1-.51l-.21.09S245.61,113,245,113Z"/><path id="_Path_8" data-name="&lt;Path&gt;" class="cls-8" d="M253.85,100.73H243.32s.9,3,1.52,6.48c1,5.73,1.26,13.08,9,13.08s8-7.33,9-13.07a65.88,65.88,0,0,1,1.52-6.49Z"/><path id="_Path_9" data-name="&lt;Path&gt;" class="cls-12" d="M264.85,98.16c-1.3-3.87-4.34,3-4.34,3,1.17.48,2.34,6.06,2.34,6.06l.84-.51h0S265.94,101.4,264.85,98.16Z"/><path id="_Path_10" data-name="&lt;Path&gt;" class="cls-13" d="M232.84,155.08a62.39,62.39,0,0,0,3.15-7.72l-9.83-3.67a66,66,0,0,0-5.26,15Z"/><path id="_Path_11" data-name="&lt;Path&gt;" class="cls-13" d="M274.59,153.08c-1.5-2.78-4-7.94-4-7.94l10.06-4.5a168.48,168.48,0,0,0,5.84,16l-11.94-3.58"/><path id="_Path_12" data-name="&lt;Path&gt;" class="cls-14" d="M241,124.59s-7.1,2.15-9.35,4.84c-2.49,3-4.2,8.37-7.71,17.77,0,0,7.83,3.78,12.07,3.92Z"/><path id="_Path_13" data-name="&lt;Path&gt;" class="cls-15" d="M265,124.4s9.15,2.26,10.9,4.65c2.16,2.94,5.11,8.46,7.9,18.15,0,0-7.89,3.77-12.13,3.91Z"/><path id="_Path_14" data-name="&lt;Path&gt;" class="cls-16" d="M245.05,95.56a3.34,3.34,0,0,1,1.61-4.48c5-2.73,18.44,1.22,20,3.78,2,3.29-1.92,8.47-8.22,8.3s-9.29-2.88-11.73-1.86-2.84-3.54-2.84-3.54Z"/><path id="_Path_15" data-name="&lt;Path&gt;" class="cls-17" d="M246.63,101l-1.58-5.45s-3-1-3,2.58a7.92,7.92,0,0,0,.74,3.56,17.14,17.14,0,0,0,1.19,5l.84.51s1.16-5.58,2.34-6.06Z"/><path id="_Path_16" data-name="&lt;Path&gt;" class="cls-18" d="M270.63,138l.07.56c0,.36.1.87.17,1.48s.14,1.33.23,2.09.15,1.58.22,2.4.13,1.63.19,2.4.08,1.49.11,2.1c.06,1.23.06,2.06.06,2.06l-.12-.56c-.05-.35-.16-.86-.25-1.47s-.2-1.32-.29-2.08-.17-1.59-.25-2.4-.13-1.64-.16-2.41,0-1.5-.05-2.11,0-1.14,0-1.5S270.63,138,270.63,138Z"/><path id="_Path_17" data-name="&lt;Path&gt;" class="cls-19" d="M237,138s0,.2,0,.56,0,.88,0,1.5,0,1.34-.05,2.11-.1,1.59-.16,2.41-.15,1.63-.25,2.4-.21,1.47-.29,2.08-.2,1.12-.26,1.47l-.11.56s0-.83.06-2.06c0-.61.06-1.33.11-2.1s.12-1.58.19-2.4.15-1.63.22-2.4.16-1.48.23-2.09.13-1.12.17-1.48Z"/><path class="cls-20" d="M236.18,158.76s.13,8.71,0,12.5c-.09,2.37-.56,4.93-.55,6.6,0,1,.09,1.76.52,2.1,2.46.6,14,1.51,19,1.54,5.31,0,13.66-.89,16.22-1.15.51-1,0-2.92,0-5.26,0-6.6.12-16.33.12-16.33H256.91"/><path class="cls-6" d="M253.83,127.34l-2.48,1.75.71,2.62a6.65,6.65,0,0,0,3.54,0l.71-2.62Z"/><path class="cls-21" d="M245.14,123.63l2.49-1.37s1.37,2.79,6.2,5.08a4.66,4.66,0,0,0-1.16,2.09c-.19.57-.57,2.32-.57,2.32S247.26,130.28,245.14,123.63Z"/><path class="cls-22" d="M262.52,123.63,260,122.26s-1.37,2.79-6.2,5.08a4.66,4.66,0,0,1,1.16,2.09c.2.57.57,2.32.57,2.32S260.4,130.28,262.52,123.63Z"/><path class="cls-6" d="M255.25,131.75l-1.42-.4-1.41.4s-3.36,27.84-3.21,30.29c.3,4.89,3.17,9.35,4.23,10.84a.47.47,0,0,0,.78,0c1.06-1.49,3.93-5.95,4.23-10.84C258.6,159.59,255.25,131.75,255.25,131.75Z"/></g><path class="cls-23" d="M174.1,289.89l-.82,4.73c0,.74-1.44,1.65-2.28,1.67a7.52,7.52,0,0,1-4.13-1.67l.51-5.37Z"/><path class="cls-24" d="M183.92,300.18c0-.93-8.13-4.48-10.64-5.56l-6.45-.36c-1.24,1.25-1.2,5.07-.91,6.07a1,1,0,0,0,.91.67h16.75a.34.34,0,0,0,.34-.34Z"/><path class="cls-8" d="M220.71,176.11l-14.42,1.44-2.19-6.23L196,172.8s2.72,6.6,4.42,10.68c.8,1.91,5,1.45,9.89,0,6.57-1.88,11.79-3.56,11.79-3.56Z"/><path class="cls-25" d="M197.92,153.75a177.64,177.64,0,0,1,7.09,19s-2.66,2.11-8.4,3.15S197.92,153.75,197.92,153.75Z"/><path class="cls-23" d="M202.64,283.29l-.24,11.33c0,.74-1.44,1.65-2.28,1.67a7.52,7.52,0,0,1-4.13-1.67l-.79-6,.89-1.16-.05-.25,2.41.08Z"/><path class="cls-26" d="M203.89,291.63c-3.7.35-11.92.58-11.92.58-1.32-14.61-3.15-32.18-3.35-44.21-1.41-6.26-2.58-12.3-3.46-17.24-.36-2-.68-3.85-.95-5.44-.66-3.94-1-6.36-1-6.36s.11-14.53,3.1-18c2.81-3.25,12.81-3.6,15.22-1.62.84.69,1.33,15.29,1.48,17.4,0,.46.1,1.82.18,3.71h.07l1,26.66Z"/><path class="cls-27" d="M174.92,292.54a63.12,63.12,0,0,1-11.34-2.09c1.73-14.73,4.47-31.88,6.49-43.4.15-6.69-1.92-22.87-2.6-28.94-1.78-4.19-3.27-15,0-18.22,3.08-3,17.72-1.91,19.95.27.78.76,0,15.35,0,17.46,0,.46-.06,1.82-.15,3.72h.08L186.05,248Z"/><polygon class="cls-28" points="187.48 214.94 186.47 239.07 188.07 245.52 187.48 214.94"/><path class="cls-29" d="M212.91,300.18c0-.93-6.78-3.89-10.51-5.56l-6.45-.36c-1.24,1.25-1.2,5.07-.91,6.07a1,1,0,0,0,.91.67h16.61a.35.35,0,0,0,.35-.34Z"/><path class="cls-30" d="M194.64,151a34.41,34.41,0,0,0-6.3-1.52,19.9,19.9,0,0,0-2.77,0c-2,.19-5,.51-8.44,1.15-1.5.28-9.49,2.81-9.95,4-.62,1.63-2.78,47.36-2.1,48,1.51,1.54,28.35,2.78,37.79-.72-.75-8.89-2.37-26.84-2.68-29.87-.75-7.13-1-14.15-1.84-17.28A5.66,5.66,0,0,0,194.64,151Z"/><path class="cls-8" d="M177.13,150.63s4.36,4.71,9.4,3.25c2.29-.68,1.81-4.42,1.81-4.42a2.19,2.19,0,0,1-1.53-.72,8.27,8.27,0,0,1-.5-1.35c-.4-1.33-.87-3.14-.87-3.14l-1.83-.56L177.92,142a50.31,50.31,0,0,1-.08,7.64A1.39,1.39,0,0,1,177.13,150.63Z"/><path class="cls-31" d="M181.11,144a7.09,7.09,0,0,0,5.2,3.42c-.4-1.33-.87-3.14-.87-3.14l-1.83-.56Z"/><path class="cls-8" d="M183.27,126.85c1,.21,4.51-1.8,5.3-.76s2.84,8.16,3.32,9.62c.31.93,1.77,6.89-.19,8.91s-8.31.73-9,.54c-1.88-.49-5.48-2.2-6.07-3.9l-.9-10.47Z"/><path class="cls-32" d="M173.16,127.46c-1.89.9-2.91,3-2.61,5.62.27,2.27,2.52,5.17,4.65,7.59a33.58,33.58,0,0,1,2.8,3.12l.65-1.06s-2.3-3-1.2-5.13c1.26-1.85,2.92.07,3.88.86a.2.2,0,0,0,.33-.17,6.63,6.63,0,0,1,.13-3.27,4.36,4.36,0,0,0-.94-4s6.65-2,8.05-4.36c1.17-2,2-5.39,0-6.38s-4.24.84-5.88,1.39C178,123.38,171.63,122.71,173.16,127.46Z"/><path class="cls-8" d="M180.74,137.94a3.67,3.67,0,0,1,.55,1.83c.21,1.45,0,2.81-.81,3.09a2.65,2.65,0,0,1-3-1.59c-.53-1.26-1.11-3.51.49-4.34S180.74,137.94,180.74,137.94Z"/><path class="cls-33" d="M193.05,154.37h10.57a0,0,0,0,1,0,0V286a2.16,2.16,0,0,1-2.16,2.16h-6.26a2.16,2.16,0,0,1-2.16-2.16V154.37a0,0,0,0,1,0,0Z" transform="translate(125.7 -66.87) rotate(27.73)"/><path class="cls-34" d="M221.23,161.18h14.51a0,0,0,0,1,0,0v4.38a1,1,0,0,1-1,1H222.27a1,1,0,0,1-1-1v-4.38A0,0,0,0,1,221.23,161.18Z" transform="translate(102.48 -87.48) rotate(27.73)"/><path class="cls-35" d="M277.18,74.2a50.4,50.4,0,1,0,21.18,68.06A50.4,50.4,0,0,0,277.18,74.2Zm-42.06,80a40,40,0,1,1,54-16.81A40,40,0,0,1,235.12,154.22Z"/><path class="cls-36" d="M274.71,78.91a45.08,45.08,0,1,0,18.94,60.88A45.08,45.08,0,0,0,274.71,78.91Zm-39.59,75.31a40,40,0,1,1,54-16.81A40,40,0,0,1,235.12,154.22Z"/><path class="cls-8" d="M211.52,202.1c-.22,0-.67-.1-1.19-.16a3.31,3.31,0,0,0,1.79-.32c.48-.51-.3-.93-.81-1s-2.11-.35-3.15-.64a14.26,14.26,0,0,1-2-.78,26.44,26.44,0,0,1,2.91-.34c1.15,0,1.54-.73,1.15-.9s-3.92-1.73-5.37-1.63c-1.19.08-2.49.31-2.49.31l-17.22-14.22-2.85-9.62-10.61,4s4.23,8.31,5.45,11,22.1,13.06,22.1,13.06.38.52,1.43,1.81a4.1,4.1,0,0,0,1.55,1.16h0l.05,0a3.22,3.22,0,0,0,.42.16c.75.28,2.2.8,2.64.89.6.13,2.91.29,3.28-.1a.31.31,0,0,0,0-.47,4.21,4.21,0,0,0,2.26-.32.39.39,0,0,0,.12-.44,2.38,2.38,0,0,0,1.29-.31C212.82,202.63,212,202.21,211.52,202.1Z"/><path class="cls-37" d="M165,157.35c-1.54,3.87-1.59,7.48,4.51,21.37,0,0,8.34-1.62,13.61-4.45,0,0-2.2-14.89-5.94-18.37S166.92,152.41,165,157.35Z"/><path class="cls-8" d="M229,178.57a.89.89,0,0,0-.13-.57.22.22,0,0,0-.07-.06h0a1.09,1.09,0,0,0,.37-.6,1,1,0,0,0-.14-.69.44.44,0,0,0-.1-.08s.07,0,.09,0a.94.94,0,0,0,.31-.52.51.51,0,0,0-.13-.5,5.6,5.6,0,0,0-1.94-.24c-.27,0-.94.08-1,.55,0,.21.2.38.61.51h-.34c-.35,0-1.19.11-1.21.7,0,.29.29.53.93.7-.37,0-.9.18-.92.64,0,.29.3.52,1,.68l.3.07c-.29,0-.93.1-.94.56,0,.25.25.44.81.58a5.39,5.39,0,0,0,2,.15.86.86,0,0,0,.28-.55,1,1,0,0,0-.1-.5.32.32,0,0,0-.15-.09l.13,0A1,1,0,0,0,229,178.57Z"/><circle class="cls-38" cx="283.27" cy="86.81" r="11.18"/><path class="cls-6" d="M276.07,84.81a10.27,10.27,0,0,1,5.5,3.28.18.18,0,0,0,.29,0,20.68,20.68,0,0,1,8.55-7.16.19.19,0,0,1,.2.31c-2.29,1.81-7,6-8.66,11.35a.18.18,0,0,1-.34,0,16,16,0,0,0-5.68-7.47A.18.18,0,0,1,276.07,84.81Z"/><rect class="cls-6" x="218.19" y="201.93" width="66.78" height="3.8" rx="1.38" ry="1.38"/><path class="cls-6" d="M283.07,214.47h-63a1.91,1.91,0,0,1-1.91-1.9h0a1.91,1.91,0,0,1,1.91-1.9h63a1.9,1.9,0,0,1,1.9,1.9h0A1.9,1.9,0,0,1,283.07,214.47Z"/><path class="cls-6" d="M283.07,223.21h-63a1.92,1.92,0,0,1-1.91-1.91h0a1.91,1.91,0,0,1,1.91-1.9h63a1.9,1.9,0,0,1,1.9,1.9h0A1.91,1.91,0,0,1,283.07,223.21Z"/><path class="cls-6" d="M283.07,231.94h-63a1.91,1.91,0,0,1-1.91-1.9h0a1.91,1.91,0,0,1,1.91-1.9h63A1.9,1.9,0,0,1,285,230h0A1.9,1.9,0,0,1,283.07,231.94Z"/><path class="cls-6" d="M283.07,240.67h-63a1.91,1.91,0,0,1-1.91-1.9h0a1.91,1.91,0,0,1,1.91-1.9h63a1.9,1.9,0,0,1,1.9,1.9h0A1.9,1.9,0,0,1,283.07,240.67Z"/><rect class="cls-39" x="294.41" y="205.6" width="42.28" height="32.99" rx="1.76" ry="1.76"/><path class="cls-6" d="M310.31,215a6,6,0,1,1-6-6A6,6,0,0,1,310.31,215Z"/><path class="cls-40" d="M304.3,209.4a5.56,5.56,0,0,0-3.34,10,5.53,5.53,0,0,0,6.67,0,5.56,5.56,0,0,0-3.33-10Zm3.21,9.58v0a3.22,3.22,0,0,0-6.43,0v0a5.16,5.16,0,1,1,6.43,0Z"/><path class="cls-41" d="M304.29,210.76a2.19,2.19,0,1,0,2.19,2.19A2.19,2.19,0,0,0,304.29,210.76Z"/><path class="cls-6" d="M333.61,210.35H314.44a.7.7,0,0,1-.71-.7h0a.7.7,0,0,1,.71-.7h19.17a.7.7,0,0,1,.7.7h0A.7.7,0,0,1,333.61,210.35Z"/><path class="cls-6" d="M333.61,214H314.44a.71.71,0,0,1-.71-.71h0a.7.7,0,0,1,.71-.7h19.17a.7.7,0,0,1,.7.7h0A.7.7,0,0,1,333.61,214Z"/><path class="cls-6" d="M333.61,217.58H314.44a.71.71,0,0,1-.71-.71h0a.7.7,0,0,1,.71-.7h19.17a.7.7,0,0,1,.7.7h0A.7.7,0,0,1,333.61,217.58Z"/><path class="cls-6" d="M333.61,221.19H314.44a.71.71,0,0,1-.71-.71h0a.7.7,0,0,1,.71-.7h19.17a.7.7,0,0,1,.7.7h0A.7.7,0,0,1,333.61,221.19Z"/><path class="cls-6" d="M333.61,224.8H297.74a.7.7,0,0,1-.7-.71h0a.7.7,0,0,1,.7-.7h35.87a.7.7,0,0,1,.7.7h0A.7.7,0,0,1,333.61,224.8Z"/><path class="cls-6" d="M333.61,228.41H297.74a.7.7,0,0,1-.7-.71h0a.7.7,0,0,1,.7-.7h35.87a.7.7,0,0,1,.7.7h0A.7.7,0,0,1,333.61,228.41Z"/><path class="cls-6" d="M333.61,232H297.74a.7.7,0,0,1-.7-.7h0a.7.7,0,0,1,.7-.71h35.87a.7.7,0,0,1,.7.71h0A.7.7,0,0,1,333.61,232Z"/><path class="cls-6" d="M333.61,235.63H297.74a.7.7,0,0,1-.7-.7h0a.7.7,0,0,1,.7-.71h35.87a.7.7,0,0,1,.7.71h0A.7.7,0,0,1,333.61,235.63Z"/><path class="cls-6" d="M240,245.45a6.38,6.38,0,0,1,1.12-.09,1.87,1.87,0,0,1,1.27.38,1.19,1.19,0,0,1,.39.94,1.36,1.36,0,0,1-.34,1,1.88,1.88,0,0,1-1.38.5,2.17,2.17,0,0,1-.47,0v1.81H240Zm.59,2.18a2,2,0,0,0,.48.05c.7,0,1.13-.34,1.13-1s-.42-.88-1.06-.88a3.07,3.07,0,0,0-.55,0Z"/><path class="cls-6" d="M243.58,245.46a6,6,0,0,1,1.12-.1,1.85,1.85,0,0,1,1.3.37,1.12,1.12,0,0,1,.36.86,1.18,1.18,0,0,1-.85,1.15v0a1.14,1.14,0,0,1,.66.92,8,8,0,0,0,.35,1.24h-.6a5,5,0,0,1-.3-1.08c-.14-.63-.38-.86-.91-.88h-.55v2h-.58Zm.58,2.06h.6c.62,0,1-.35,1-.86s-.43-.84-1-.85a2.23,2.23,0,0,0-.58.06Z"/><path class="cls-6" d="M251.06,247.61A2.12,2.12,0,0,1,249,250a2.07,2.07,0,0,1-2-2.29,2.15,2.15,0,0,1,2.09-2.38A2.06,2.06,0,0,1,251.06,247.61Zm-3.5.07c0,1,.52,1.83,1.44,1.83s1.45-.85,1.45-1.87S250,245.8,249,245.8,247.56,246.69,247.56,247.68Z"/><path class="cls-6" d="M251.82,245.4h2.43v.49H252.4v1.5h1.71v.48H252.4v2h-.58Z"/><path class="cls-6" d="M255.67,245.4v4.52h-.59V245.4Z"/><path class="cls-6" d="M256.69,245.4h.58v4h1.93v.49h-2.51Z"/><path class="cls-6" d="M262.19,247.8h-1.76v1.63h2v.49h-2.54V245.4h2.44v.49h-1.86v1.43h1.76Z"/></g></g></svg>